<svg>
  <defs>
    <svg id="right-arrow" viewBox="0 0 11 20" xmlns="http://www.w3.org/2000/svg">
      <path d="M.4 19.7c.4.4 1 .4 1.4 0l8.6-8.3c.8-.7.8-2 0-2.8L1.8.3A1 1 0 00.3.3a1 1 0 000 1.4l7.9 7.6c.4.4.4 1 0 1.4L.4 18.3a1 1 0 000 1.4" fill-rule="evenodd"/>
    </svg>
    <svg id="pdf" xmlns="http://www.w3.org/2000/svg" viewBox="0 0 20 20">
      <path d="M19.7 6.1L14.3.4a1 1 0 00-.8-.4H2C.9 0 0 1 0 2.1v7c0 .6.4.9 1 .9.5 0 1-.3 1-.9v-6C2 2.6 2.4 2 3 2h9v4.1c0 1.1.9 1.9 2 1.9h4v1.1c0 .6.4.9 1 .9.5 0 1-.3 1-.9V6.8a1 1 0 00-.3-.7zM4 15.1c0-.5-.5-1-1-1H2v2h1c.5 0 1-.4 1-1zm2-.3A3 3 0 013 18H2v1.1c0 .6-.5.9-1 .9-.6 0-1-.3-1-.9v-6c0-.5.4-1.1 1-1.1h1.8c1.6 0 3 1.2 3.2 2.8zm5 .3c0-.5-.5-1.1-1-1.1H9v4h1c.5 0 1-.3 1-.9v-2zm2-.1v2a3 3 0 01-3 3H7.9a.9.9 0 01-.9-.9V13c0-.6.4-1 1-1h2a3 3 0 013 3zm7-2c0 .6-.5 1-1 1h-3v2h3c.5 0 1 .5 1 1 0 .6-.5 1-1 1h-3v1.1c0 .6-.5.9-1 .9-.6 0-1-.3-1-.9v-6c0-.5.4-1.1 1-1.1h4c.5 0 1 .5 1 1z" fill-rule="evenodd"/>
    </svg>
    <svg id="plus" xmlns="http://www.w3.org/2000/svg" viewBox="0 0 9 8">
      <path d="M9 3v2H5.6v3H3.4V5H0V3h3.4V0h2.2v3z" fill-rule="evenodd"/>
    </svg>
    <svg id="edit" xmlns="http://www.w3.org/2000/svg" viewBox="0 0 21 20">
      <path d="M0 20h21v-1.99H0V20zm10.33-5.97H6.3V9.95L16.63 0 21 4.12l-10.67 9.91z" fill-rule="evenodd"/>
    </svg>
    <svg id="clone" xmlns="http://www.w3.org/2000/svg" viewBox="0 0 20 20">
      <path d="M16 18.98V19c0 .55-.45.95-1 .95H2V20c-1.1 0-2-.84-2-1.94V5.09a1 1 0 012 0v11.97c0 .55.45.9 1 .9h12c.55 0 1 .47 1 1.02zm2-5.9c0 .54-.45.88-1 .88H7c-.55 0-1-.34-1-.89V3.1C6 2.55 6.45 2 7 2h5v4.09c0 1.1.9 1.89 2 1.89h4v5.1zm1.7-7.3L14.3.33a1.06 1.06 0 00-.71-.34H6v.05c-1.1 0-2 .92-2 2.02v12c0 1.1.9 1.94 2 1.94v-.05h12V16c1.1 0 2-.87 2-1.97V6.5c0-.26-.1-.54-.3-.73z" fill-rule="evenodd"/>
    </svg>
    <svg id="show-password" xmlns="http://www.w3.org/2000/svg" viewBox="0 0 14 20">
      <path d="M7 12a1 1 0 110 2 1 1 0 010-2zm0 4a3 3 0 100-6 3 3 0 000 6zm5 1c0 .6-.4 1-1 1H3a1 1 0 01-1-1V9c0-.6.4-1 1-1h8c.6 0 1 .4 1 1v8zM5 6V4.1c0-.8.4-1.5 1.1-1.9 1.3-.6 2.4.2 2.8 1.2.1.4.5.6 1 .6.6 0 1-.7.8-1.3C10.1.9 8-.5 5.7.2a4.3 4.3 0 00-2.7 4V6a3 3 0 00-3 3v8a3 3 0 003 3h8a3 3 0 003-3V9a3 3 0 00-3-3H5z" fill-rule="evenodd"/>
    </svg>
    <svg id="hide-password" xmlns="http://www.w3.org/2000/svg" viewBox="0 0 14 20">
      <path d="M7 12a1 1 0 110 2 1 1 0 010-2zm0 4a3 3 0 100-6 3 3 0 000 6zm5 1c0 .6-.4 1-1 1H3a1 1 0 01-1-1V9c0-.6.4-1 1-1h8c.6 0 1 .4 1 1v8zM5 4c0-1.1.9-2 2-2s2 1 2 2v2H5V4zm6 2V4C11 1.8 8.7-.5 6.2.1A4.2 4.2 0 003 4.3V6H2a2 2 0 00-2 2v10c0 1.1.9 2 2 2h10a2 2 0 002-2V8a2 2 0 00-2-2h-1z" fill-rule="evenodd"/>
    </svg>
    <svg id="close" xmlns="http://www.w3.org/2000/svg" viewBox="0 0 21 20">
      <path d="M12 10l9 8.6-1.5 1.4-9-8.6-9 8.6L0 18.6 9 10 0 1.4 1.5 0l9 8.6 9-8.6L21 1.4z" fill-rule="evenodd"/>
    </svg>
    <svg id="pencil" xmlns="http://www.w3.org/2000/svg" viewBox="0 0 20 20">
      <path d="M2.457 16.583L15.63 2.949l1.424 1.473L3.88 18.057l-1.424-1.474zM15.826 0L0 16.583V20h3.881L20 3.92 15.826 0z" fill="#000" fill-rule="evenodd"/>
    </svg>
  </defs>
</svg>
