<svg>
  <defs>
    <svg id="calendar" width="20px" height="20px" viewBox="0 0 20 20" version="1.1" xmlns="http://www.w3.org/2000/svg" xmlns:xlink="http://www.w3.org/1999/xlink">
      <g stroke="none" fill-rule="evenodd">
        <g transform="translate(-300.000000, -2799.000000)">
          <g transform="translate(56.000000, 160.000000)">
            <path d="M262,2656 C262,2656.552 261.552,2657 261,2657 L247,2657 C246.448,2657 246,2656.552 246,2656 L246,2646 C246,2645.448 246.448,2645 247,2645 L261,2645 C261.552,2645 262,2645.448 262,2646 L262,2656 Z M262,2641 L262,2640 C262,2639.448 261.552,2639 261,2639 C260.448,2639 260,2639.448 260,2640 L260,2641 L255,2641 L255,2640 C255,2639.448 254.552,2639 254,2639 C253.448,2639 253,2639.448 253,2640 L253,2641 L248,2641 L248,2640 C248,2639.448 247.552,2639 247,2639 C246.448,2639 246,2639.448 246,2640 L246,2641 C244.895,2641 244,2641.895 244,2643 L244,2657 C244,2658.104 244.895,2659 246,2659 L262,2659 C263.105,2659 264,2658.104 264,2657 L264,2643 C264,2641.895 263.105,2641 262,2641 L262,2641 Z" id="calendar" />
          </g>
        </g>
      </g>
    </svg>
    <svg id="lock-close" width="14px" height="20px" viewBox="0 0 14 20" version="1.1" xmlns="http://www.w3.org/2000/svg" xmlns:xlink="http://www.w3.org/1999/xlink">
      <g stroke="none" fill-rule="evenodd">
        <g transform="translate(-263.000000, -5079.000000)">
          <g transform="translate(56.000000, 160.000000)">
            <path d="M214,4931.00046 C214.552,4931.00046 215,4931.44846 215,4932.00046 C215,4932.55246 214.552,4933.00046 214,4933.00046 C213.448,4933.00046 213,4932.55246 213,4932.00046 C213,4931.44846 213.448,4931.00046 214,4931.00046 L214,4931.00046 Z M214,4935.00046 C215.654,4935.00046 217,4933.65446 217,4932.00046 C217,4930.34646 215.654,4929.00046 214,4929.00046 C212.346,4929.00046 211,4930.34646 211,4932.00046 C211,4933.65446 212.346,4935.00046 214,4935.00046 L214,4935.00046 Z M219,4936.00046 C219,4936.55246 218.552,4937.00046 218,4937.00046 L210,4937.00046 C209.448,4937.00046 209,4936.55246 209,4936.00046 L209,4928.00046 C209,4927.44846 209.448,4927.00046 210,4927.00046 L218,4927.00046 C218.552,4927.00046 219,4927.44846 219,4928.00046 L219,4936.00046 Z M212,4923.00046 C212,4921.89746 212.897,4921.00046 214,4921.00046 C215.103,4921.00046 216,4922.00046 216,4923.00046 L216,4925.00046 L212,4925.00046 L212,4923.00046 Z M218,4925.00046 L218,4923.00046 C218,4920.75346 215.739,4918.50546 213.164,4919.09546 C211.266,4919.53046 210,4921.34146 210,4923.28846 L210,4925.00046 L209,4925.00046 C207.895,4925.00046 207,4925.89546 207,4927.00046 L207,4937.00046 C207,4938.10546 207.895,4939.00046 209,4939.00046 L219,4939.00046 C220.105,4939.00046 221,4938.10546 221,4937.00046 L221,4927.00046 C221,4925.89546 220.105,4925.00046 219,4925.00046 L218,4925.00046 Z" />
          </g>
        </g>
      </g>
    </svg>
    <svg id="lock-open" width="14px" height="20px" viewBox="0 0 14 20" version="1.1" xmlns="http://www.w3.org/2000/svg" xmlns:xlink="http://www.w3.org/1999/xlink">
      <g stroke="none" fill-rule="evenodd">
        <g transform="translate(-223.000000, -5079.000000)">
          <g transform="translate(56.000000, 160.000000)">
            <path d="M174,4931.00012 C174.552,4931.00012 175,4931.44812 175,4932.00012 C175,4932.55212 174.552,4933.00012 174,4933.00012 C173.448,4933.00012 173,4932.55212 173,4932.00012 C173,4931.44812 173.448,4931.00012 174,4931.00012 L174,4931.00012 Z M174,4935.00012 C175.654,4935.00012 177,4933.65412 177,4932.00012 C177,4930.34612 175.654,4929.00012 174,4929.00012 C172.346,4929.00012 171,4930.34612 171,4932.00012 C171,4933.65412 172.346,4935.00012 174,4935.00012 L174,4935.00012 Z M179,4936.00012 C179,4936.55212 178.552,4937.00012 178,4937.00012 L170,4937.00012 C169.448,4937.00012 169,4936.55212 169,4936.00012 L169,4928.00012 C169,4927.44812 169.448,4927.00012 170,4927.00012 L178,4927.00012 C178.552,4927.00012 179,4927.44812 179,4928.00012 L179,4936.00012 Z M172,4925.00012 L172,4923.13212 C172,4922.33412 172.417,4921.56112 173.133,4921.20912 C174.353,4920.60912 175.54,4921.39112 175.894,4922.39712 C176.026,4922.77212 176.408,4923.00012 176.805,4923.00012 C177.485,4923.00012 177.993,4922.32212 177.749,4921.68712 C177.052,4919.86812 174.995,4918.45712 172.78,4919.20412 C171.072,4919.78012 170,4921.48612 170,4923.28812 L170,4925.00012 C168.343,4925.00012 167,4926.34312 167,4928.00012 L167,4936.00012 C167,4937.65712 168.343,4939.00012 170,4939.00012 L178,4939.00012 C179.657,4939.00012 181,4937.65712 181,4936.00012 L181,4928.00012 C181,4926.34312 179.657,4925.00012 178,4925.00012 L172,4925.00012 Z" />
          </g>
        </g>
      </g>
    </svg>
    <svg id="settings" width="21px" height="14px" viewBox="0 0 21 14" version="1.1" xmlns="http://www.w3.org/2000/svg" xmlns:xlink="http://www.w3.org/1999/xlink">
      <path d="M10.5 3c0-.353.076-1 .193-1H0v2h10.693c-.117 0-.193-.647-.193-1zm8.207-1c-.434-1-1.588-2-2.957-2-1.74 0-3.15 1.343-3.15 3s1.41 3 3.15 3c1.37 0 2.523-1 2.957-2H21V2h-2.293zM10.5 11c0 .353-.076.686-.193 1H21v-2H10.307c.117 0 .193.647.193 1zm-2.1 0c0 1.657-1.41 3-3.15 3-1.37 0-2.523-1-2.957-2H0v-2h2.293c.434-1 1.588-2 2.957-2C6.99 8 8.4 9.343 8.4 11z" fill-rule="evenodd"/>
    </svg>
  </defs>
</svg>
